<?xml version="1.0" encoding="utf-8"?>
<!-- Generator: Adobe Illustrator 19.0.0, SVG Export Plug-In . SVG Version: 6.00 Build 0)  -->
<svg version="1.1" id="layer" xmlns="http://www.w3.org/2000/svg" xmlns:xlink="http://www.w3.org/1999/xlink" x="0px" y="0px"
	 viewBox="-153 -46 652 652" style="enable-background:new -153 -46 652 652;" xml:space="preserve">
<style type="text/css">
	.st0{fill:#012169;}
</style>
<g>
	<path class="st0" d="M-61.5,245h41.4l70.1,169.3H7.7l-16.3-39.4H-73l-16.3,39.4h-42.4L-61.5,245z M-64.8,344.8h48.2l-24.1-59.2
		L-64.8,344.8z"/>
	<path class="st0" d="M131.6,290.7c11.3,0,20.9,1.6,28.8,4.7c7.8,3.1,14.5,8,19.9,14.6c4.4,5.1,7.7,11.2,9.9,18.2
		c2.2,7.1,3.3,14.6,3.3,22.7c0,12.2-2.3,22.9-7,32.3c-4.7,9.3-11.4,16.7-20.2,22.1c-2.9,1.9-5.7,3.3-8.5,4.4s-5.9,2.1-9.3,2.8
		c-3.4,0.8-7.2,1.3-11.3,1.5c-4.2,0.3-9,0.4-14.6,0.4H67.1V245h34.3v45.7L131.6,290.7L131.6,290.7L131.6,290.7z M101.4,388.2h25
		c10.1,0,18-3.2,23.6-9.7c5.7-6.5,8.5-15.3,8.5-26.6c0-23.4-10.7-35-32.1-35h-25L101.4,388.2L101.4,388.2z"/>
	<path class="st0" d="M319.5,365.6h-71.6c0.3,4.8,1.2,8.5,2.6,11.2c1.3,2.7,3.6,5,6.6,7.1c2.4,1.7,5.1,2.9,8.1,3.4
		c3.1,0.6,7.3,0.9,12.7,0.9h41.6v26.1h-45.2c-9.8,0-17.8-0.8-24-2.6c-6.2-1.7-12-4.7-17.7-9.2c-14.9-11.3-22.3-28.6-22.3-51.8
		c0-10.8,2.2-20.9,6.5-30.1c4.3-9.2,10.2-16.3,17.7-21.2c4.7-3.2,10-5.5,15.9-6.8c5.8-1.3,13-2.1,21.4-2.1h47.7v26.1h-45.2
		c-4.6,0-8.4,0.3-11.7,1.1c-3.2,0.7-5.8,1.9-7.9,3.7c-2.1,1.7-3.6,4.1-4.7,7s-1.8,6.6-2.2,10.9h71.6L319.5,365.6L319.5,365.6z"/>
	<path class="st0" d="M347.7,414.4V245H382v169.3L347.7,414.4L347.7,414.4z"/>
</g>
<g>
	<path class="st0" d="M409.6,386.5c1.9,0,3.8,0.4,5.5,1.2c1.7,0.8,3.2,1.8,4.6,3.1c1.3,1.3,2.3,2.8,3.1,4.6c0.8,1.8,1.1,3.6,1.1,5.6
		c0,2-0.4,3.8-1.1,5.6c-0.8,1.7-1.8,3.3-3.1,4.6s-2.8,2.3-4.6,3.1c-1.8,0.8-3.6,1.1-5.6,1.1c-2,0-3.9-0.4-5.7-1.1
		c-1.8-0.8-3.3-1.8-4.6-3.1c-1.3-1.3-2.3-2.8-3.1-4.6c-0.8-1.7-1.2-3.6-1.2-5.6s0.4-3.9,1.2-5.7c0.8-1.8,1.8-3.3,3.1-4.6
		c1.3-1.3,2.8-2.3,4.7-3.1C405.6,386.9,407.5,386.5,409.6,386.5z M409.3,389.2c-1.6,0-3.1,0.3-4.4,0.9c-1.4,0.6-2.6,1.4-3.7,2.5
		c-1.1,1.1-1.8,2.3-2.4,3.7c-0.6,1.4-0.9,2.9-0.9,4.5s0.3,3.1,0.9,4.6c0.6,1.4,1.4,2.7,2.4,3.7c1.1,1.1,2.3,1.9,3.7,2.5
		c1.4,0.6,2.9,0.9,4.5,0.9c1.6,0,3.1-0.3,4.5-0.9c1.4-0.6,2.6-1.4,3.7-2.5c1.1-1.1,1.9-2.3,2.4-3.7c0.6-1.4,0.9-2.9,0.9-4.5
		c0-1.6-0.3-3.2-0.9-4.6c-0.6-1.4-1.4-2.7-2.4-3.7c-1.1-1.1-2.3-1.9-3.7-2.5C412.4,389.5,410.9,389.2,409.3,389.2z M406.3,408.7h-4
		v-15.9h7.3c1.3,0,2.4,0.1,3.3,0.2c0.8,0.2,1.6,0.4,2.1,0.7c0.7,0.4,1.1,0.9,1.5,1.6c0.3,0.6,0.5,1.3,0.5,2.1c0,1.2-0.3,2.1-0.8,2.9
		s-1.3,1.3-2.2,1.7c1.8,0.6,2.8,2,2.8,4.3c0,0.4,0.1,0.7,0.1,1c0,0.2,0.1,0.4,0.1,0.6c0.1,0.2,0.1,0.3,0.1,0.4
		c0.1,0.2,0.1,0.3,0.2,0.5h-4.5c0-0.2-0.1-0.3-0.1-0.4l-0.2-0.8l-0.1-1.1c-0.1-0.7-0.2-1.3-0.4-1.7c-0.2-0.4-0.4-0.8-0.8-1.1
		c-0.4-0.3-0.8-0.5-1.3-0.6c-0.6-0.1-1.2-0.2-2.1-0.2h-1.4L406.3,408.7L406.3,408.7L406.3,408.7z M409.9,399.6c0.9,0,1.6-0.2,2-0.4
		c0.4-0.3,0.6-0.8,0.6-1.6c0-0.7-0.2-1.2-0.6-1.4c-0.4-0.3-1.1-0.4-2-0.4h-3.7v3.8L409.9,399.6L409.9,399.6z"/>
</g>
<polygon class="st0" points="-60.7,221.4 173.9,221.4 468.4,134.6 "/>
</svg>
